<svg width="20" height="19" viewBox="0 0 20 19" fill="none" xmlns="http://www.w3.org/2000/svg">
<path d="M10.6825 0.414771C10.0667 -0.0923587 9.10334 -0.0923587 8.4875 0.414771L0.749994 6.78655C0.271256 7.18079 0 7.72932 0 8.30315V16.0523C0 17.2049 1.07283 18.1394 2.39625 18.1394H4.7925C6.11592 18.1394 7.18875 17.2049 7.18875 16.0523V12.5737C7.18875 12.1896 7.54637 11.8781 7.9875 11.8781H11.1825C11.6236 11.8781 11.9813 12.1896 11.9813 12.5737V16.0523C11.9813 17.2049 13.0541 18.1394 14.3775 18.1394H16.7738C18.0971 18.1394 19.17 17.2049 19.17 16.0523V8.30315C19.17 7.72932 18.8987 7.18079 18.42 6.78655L10.6825 0.414771Z" fill="white"/>
</svg>
