<svg width="18" height="17" viewBox="0 0 18 17" fill="none" xmlns="http://www.w3.org/2000/svg">
<path d="M7 0.834076C5.81331 0.834076 4.65328 1.18194 3.66658 1.83368C2.67989 2.48543 1.91085 3.41177 1.45673 4.49558C1.0026 5.57939 0.88378 6.77198 1.11529 7.92254C1.3468 9.0731 1.91825 10.13 2.75736 10.9595C3.59648 11.789 4.66557 12.3539 5.82946 12.5827C6.99335 12.8116 8.19975 12.6941 9.2961 12.2452C10.3925 11.7963 11.3295 11.0361 11.9888 10.0607C12.6481 9.08526 13 7.9385 13 6.7654C12.9999 5.19234 12.3677 3.68375 11.2425 2.57143C10.1173 1.45911 8.59127 0.834176 7 0.834076V0.834076Z" stroke="url(#paint0_linear_172_15990)" stroke-width="1.5" stroke-miterlimit="10"/>
<path d="M12 10.7196L17 15.6624" stroke="url(#paint1_linear_172_15990)" stroke-width="1.5" stroke-miterlimit="10" stroke-linecap="round"/>
<defs>
<linearGradient id="paint0_linear_172_15990" x1="5.03641" y1="1.48252" x2="13.1033" y2="7.88076" gradientUnits="userSpaceOnUse">
<stop stop-color="#C43E1A"/>
<stop offset="1" stop-color="#B22310"/>
</linearGradient>
<linearGradient id="paint1_linear_172_15990" x1="13.6818" y1="10.9898" x2="17.043" y2="13.6557" gradientUnits="userSpaceOnUse">
<stop stop-color="#C43E1A"/>
<stop offset="1" stop-color="#B22310"/>
</linearGradient>
</defs>
</svg>
