<svg width="12" height="9" viewBox="0 0 12 9" fill="none" xmlns="http://www.w3.org/2000/svg">
<path d="M5.98904 6.5336C6.66957 6.53356 7.248 6.29533 7.72433 5.81894C8.20067 5.34254 8.43881 4.76408 8.43877 4.08355C8.43872 3.40303 8.2005 2.8246 7.7241 2.34827C7.2477 1.87193 6.66924 1.63379 5.98872 1.63383C5.30819 1.63388 4.72976 1.8721 4.25343 2.3485C3.77709 2.8249 3.53895 3.40336 3.539 4.08388C3.53904 4.7644 3.77726 5.34283 4.25366 5.81917C4.73006 6.2955 5.30852 6.53365 5.98904 6.5336ZM5.98898 5.55365C5.58067 5.55368 5.23359 5.41079 4.94775 5.12499C4.66191 4.83919 4.51898 4.49213 4.51895 4.08382C4.51892 3.6755 4.66181 3.32842 4.94761 3.04259C5.23341 2.75675 5.58047 2.61381 5.98878 2.61379C6.3971 2.61376 6.74417 2.75665 7.03001 3.04245C7.31585 3.32825 7.45878 3.6753 7.45881 4.08362C7.45884 4.49193 7.31595 4.83901 7.03015 5.12485C6.74435 5.41069 6.39729 5.55362 5.98898 5.55365ZM5.98915 8.16686C4.6644 8.16695 3.45758 7.79728 2.36869 7.05785C1.27981 6.31842 0.490333 5.32717 0.000273231 4.08412C0.490167 2.841 1.27951 1.84965 2.3683 1.11007C3.45708 0.370496 4.66386 0.000664471 5.98861 0.000575823C7.31336 0.000487175 8.52018 0.370158 9.60907 1.10959C10.698 1.84902 11.4874 2.84026 11.9775 4.08332C11.4876 5.32644 10.6983 6.31779 9.60946 7.05736C8.52068 7.79694 7.31391 8.16677 5.98915 8.16686ZM5.98908 7.07802C7.0144 7.07795 7.95578 6.80795 8.8132 6.26801C9.67062 5.72807 10.3261 4.99987 10.7798 4.0834C10.326 3.16699 9.6704 2.43887 8.81291 1.89905C7.95541 1.35922 7.014 1.08934 5.98868 1.08941C4.96336 1.08948 4.02199 1.35949 3.16456 1.89943C2.30714 2.43937 1.65162 3.16757 1.19799 4.08404C1.65174 5.00045 2.30736 5.72856 3.16485 6.26839C4.02235 6.80821 4.96376 7.07809 5.98908 7.07802Z" fill="url(#paint0_linear_8_197)"/>
<defs>
<linearGradient id="paint0_linear_8_197" x1="4.02877" y1="0.447099" x2="9.67701" y2="6.94155" gradientUnits="userSpaceOnUse">
<stop stop-color="#C43E1A"/>
<stop offset="1" stop-color="#B22310"/>
</linearGradient>
</defs>
</svg>
